<svg width="21" height="20" viewBox="0 0 21 20" fill="none" xmlns="http://www.w3.org/2000/svg">
<rect x="0.0244141" width="20" height="20" rx="10" fill="#EAEAEA"/>
<g clip-path="url(#clip0_812_5557)">
<path d="M8.02441 8H8.02941M5.02441 6.6L5.02441 8.83726C5.02441 9.08185 5.02441 9.20414 5.05204 9.31923C5.07654 9.42127 5.11695 9.51881 5.17177 9.60828C5.23362 9.7092 5.32009 9.79568 5.49304 9.96863L9.32736 13.8029C9.92138 14.397 10.2184 14.694 10.5609 14.8053C10.8622 14.9031 11.1867 14.9031 11.4879 14.8053C11.8304 14.694 12.1274 14.397 12.7215 13.8029L13.8274 12.6971C14.4214 12.103 14.7184 11.806 14.8297 11.4635C14.9276 11.1623 14.9276 10.8377 14.8297 10.5365C14.7184 10.194 14.4214 9.89697 13.8274 9.30294L9.99304 5.46863C9.82009 5.29568 9.73361 5.2092 9.6327 5.14736C9.54323 5.09253 9.44568 5.05213 9.34365 5.02763C9.22856 5 9.10626 5 8.86167 5L6.62441 5C6.06436 5 5.78434 5 5.57042 5.10899C5.38226 5.20487 5.22928 5.35785 5.13341 5.54601C5.02441 5.75992 5.02441 6.03995 5.02441 6.6ZM8.27441 8C8.27441 8.13807 8.16249 8.25 8.02441 8.25C7.88634 8.25 7.77441 8.13807 7.77441 8C7.77441 7.86193 7.88634 7.75 8.02441 7.75C8.16249 7.75 8.27441 7.86193 8.27441 8Z" stroke="#5AB055" stroke-width="0.7" stroke-linecap="round" stroke-linejoin="round"/>
</g>
<defs>
<clipPath id="clip0_812_5557">
<rect width="12" height="12" fill="white" transform="translate(4.02441 4)"/>
</clipPath>
</defs>
</svg>
